<?xml version="1.0" encoding="ISO-8859-1" standalone="no"?>
<!DOCTYPE svg PUBLIC "-//W3C//DTD SVG 1.1//EN" "http://www.w3.org/Graphics/SVG/1.1/DTD/svg11.dtd">
<svg version="1.1" baseProfile="full" id="body" width="8in" height="8in" viewBox="0 0 1 1" preserveAspectRatio="none" xmlns="http://www.w3.org/2000/svg" xmlns:xlink="http://www.w3.org/1999/xlink" xmlns:ev="http://www.w3.org/2001/xml-events">
<title>SVG drawing</title>
<desc>This was produced by version 4.4 of GNU libplot, a free library for exporting 2-D vector graphics.</desc>
<rect id="background" x="0" y="0" width="1" height="1" stroke="none" fill="white"/>
<g id="content" transform="translate(-0.03125,0.23703) scale(0.10625,-0.10625) " xml:space="preserve" stroke="black" stroke-linecap="butt" stroke-linejoin="miter" stroke-miterlimit="10.433" stroke-dasharray="none" stroke-dashoffset="0" stroke-opacity="1" fill="none" fill-rule="evenodd" fill-opacity="1" font-style="normal" font-variant="normal" font-weight="normal" font-stretch="normal" font-size-adjust="none" letter-spacing="normal" word-spacing="normal" text-anchor="start">
<rect x="1.25" y="-0.15" width="0.75" height="0.3" stroke-width="0.011073" />
<text transform="translate(1.4208,-0.05768) scale(1,-1) scale(0.0081699) " font-family="Helvetica,sans-serif" font-size="20px" stroke="none" fill="black" >FFC3</text>
<line x1="1.35" y1="-0.07" x2="1.9" y2="-0.07" stroke-width="0.011073" />
<rect x="3.75" y="-0.15" width="0.75" height="0.3" stroke-width="0.011073" />
<text transform="translate(3.7482,-0.05768) scale(1,-1) scale(0.0081699) " font-family="Helvetica,sans-serif" font-size="20px" stroke="none" fill="black" >CU Dlt645</text>
<line x1="3.85" y1="-0.07" x2="4.4" y2="-0.07" stroke-width="0.011073" />
<rect x="6.25" y="-0.15" width="0.75" height="0.3" stroke-width="0.011073" />
<text transform="translate(6.2983,-0.05768) scale(1,-1) scale(0.0081699) " font-family="Helvetica,sans-serif" font-size="20px" stroke="none" fill="black" >CU Dlms</text>
<line x1="6.35" y1="-0.07" x2="6.9" y2="-0.07" stroke-width="0.011073" />
<rect x="8.75" y="-0.15" width="0.75" height="0.3" stroke-width="0.011073" />
<text transform="translate(8.7208,-0.05768) scale(1,-1) scale(0.0081699) " font-family="Helvetica,sans-serif" font-size="20px" stroke="none" fill="black" >E650/E850</text>
<line x1="8.85" y1="-0.07" x2="9.4" y2="-0.07" stroke-width="0.011073" />
<line x1="1.625" y1="-0.15" x2="1.625" y2="-0.25" stroke-width="0.011073" stroke-dasharray="0.05, 0.05"/>
<line x1="1.575" y1="-0.25" x2="1.675" y2="-0.25" stroke-width="0.011073" />
<line x1="4.125" y1="-0.15" x2="4.125" y2="-0.25" stroke-width="0.011073" stroke-dasharray="0.05, 0.05"/>
<line x1="4.075" y1="-0.25" x2="4.175" y2="-0.25" stroke-width="0.011073" />
<line x1="6.625" y1="-0.15" x2="6.625" y2="-0.25" stroke-width="0.011073" stroke-dasharray="0.05, 0.05"/>
<line x1="6.575" y1="-0.25" x2="6.675" y2="-0.25" stroke-width="0.011073" />
<line x1="1.575" y1="-0.25" x2="1.575" y2="-0.5" stroke-width="0.011073" />
<line x1="1.675" y1="-0.25" x2="1.675" y2="-0.5" stroke-width="0.011073" />
<text transform="translate(1.2391,-0.70768) scale(1,-1) scale(0.0081699) " font-family="Helvetica,sans-serif" font-size="20px" stroke="none" fill="black" >concurrent</text>
<polyline points="2,-0.5 2,-0.65 1.85,-0.8 1.25,-0.8 " stroke-width="0.011073" />
<line x1="1.685" y1="-1.05" x2="4.065" y2="-1.05" stroke-width="0.011073" />
<polygon points="3.965,-1.025 4.065,-1.05 3.965,-1.075 " stroke-width="0.011073" fill="black" />
<text transform="translate(2.4663,-1.0096) scale(1,-1) scale(0.0081699) " font-family="Helvetica,sans-serif" font-size="20px" stroke="none" fill="black" >read dlt645</text>
<text transform="translate(2.8523,-1.2057) scale(1,-1) scale(0.0081699) " font-family="Helvetica,sans-serif" font-size="20px" stroke="none" fill="black" > </text>
<line x1="4.065" y1="-1.3" x2="1.685" y2="-1.3" stroke-width="0.011073" stroke-dasharray="0.05, 0.05"/>
<polygon points="1.785,-1.325 1.685,-1.3 1.785,-1.275 " stroke-width="0.011073" fill="black" />
<text transform="translate(2.2666,-1.2596) scale(1,-1) scale(0.0081699) " font-family="Helvetica,sans-serif" font-size="20px" stroke="none" fill="black" >normal response</text>
<text transform="translate(2.8523,-1.4557) scale(1,-1) scale(0.0081699) " font-family="Helvetica,sans-serif" font-size="20px" stroke="none" fill="black" > </text>
<line x1="1.685" y1="-1.55" x2="6.565" y2="-1.55" stroke-width="0.011073" />
<polygon points="6.465,-1.525 6.565,-1.55 6.465,-1.575 " stroke-width="0.011073" fill="black" />
<text transform="translate(3.7663,-1.5096) scale(1,-1) scale(0.0081699) " font-family="Helvetica,sans-serif" font-size="20px" stroke="none" fill="black" >read dlms</text>
<text transform="translate(4.1023,-1.7057) scale(1,-1) scale(0.0081699) " font-family="Helvetica,sans-serif" font-size="20px" stroke="none" fill="black" > </text>
<line x1="4.065" y1="-1.8" x2="1.685" y2="-1.8" stroke-width="0.011073" stroke-dasharray="0.05, 0.05"/>
<polygon points="1.785,-1.825 1.685,-1.8 1.785,-1.775 " stroke-width="0.011073" fill="black" />
<text transform="translate(2.2666,-1.7596) scale(1,-1) scale(0.0081699) " font-family="Helvetica,sans-serif" font-size="20px" stroke="none" fill="black" >normal response</text>
<text transform="translate(2.8523,-1.9557) scale(1,-1) scale(0.0081699) " font-family="Helvetica,sans-serif" font-size="20px" stroke="none" fill="black" > </text>
<polyline points="1.685,-2.05 2.185,-2.05 2.185,-2.3 1.685,-2.3 " stroke-width="0.011073" />
<polygon points="1.785,-2.325 1.685,-2.3 1.785,-2.275 " stroke-width="0.011073" fill="black" />
<text transform="translate(1.685,-1.9386) scale(1,-1) scale(0.0081699) " font-family="Helvetica,sans-serif" font-size="20px" stroke="none" fill="black" >comm timeout dlt645 and dlms</text>
<text transform="translate(1.6623,-2.1346) scale(1,-1) scale(0.0081699) " font-family="Helvetica,sans-serif" font-size="20px" stroke="none" fill="black" > </text>
<text transform="translate(1.6623,-2.3307) scale(1,-1) scale(0.0081699) " font-family="Helvetica,sans-serif" font-size="20px" stroke="none" fill="black" > </text>
<text transform="translate(1.6623,-2.5268) scale(1,-1) scale(0.0081699) " font-family="Helvetica,sans-serif" font-size="20px" stroke="none" fill="black" > </text>
<rect x="1.25" y="-2.55" width="5.75" height="2.05" stroke-width="0.011073" />
<line x1="9.125" y1="-0.15" x2="9.125" y2="-2.55" stroke-width="0.011073" stroke-dasharray="0.05, 0.05"/>
<line x1="9.075" y1="-2.55" x2="9.175" y2="-2.55" stroke-width="0.011073" />
<polyline points="9.185,-2.8 9.685,-2.8 9.685,-3.05 9.185,-3.05 " stroke-width="0.011073" />
<polygon points="9.285,-3.075 9.185,-3.05 9.285,-3.025 " stroke-width="0.011073" fill="black" />
<text transform="translate(9.185,-2.6886) scale(1,-1) scale(0.0081699) " font-family="Helvetica,sans-serif" font-size="20px" stroke="none" fill="black" >recorded F11</text>
<text transform="translate(9.1623,-2.8846) scale(1,-1) scale(0.0081699) " font-family="Helvetica,sans-serif" font-size="20px" stroke="none" fill="black" > </text>
<text transform="translate(9.1623,-3.0807) scale(1,-1) scale(0.0081699) " font-family="Helvetica,sans-serif" font-size="20px" stroke="none" fill="black" > </text>
<text transform="translate(9.1623,-3.2768) scale(1,-1) scale(0.0081699) " font-family="Helvetica,sans-serif" font-size="20px" stroke="none" fill="black" > </text>
<line x1="9.075" y1="-2.55" x2="9.075" y2="-3.05" stroke-width="0.011073" />
<line x1="9.175" y1="-2.55" x2="9.175" y2="-3.05" stroke-width="0.011073" />
<line x1="9.075" y1="-3.05" x2="9.175" y2="-3.05" stroke-width="0.011073" />
<line x1="1.575" y1="-0.8" x2="1.575" y2="-3.05" stroke-width="0.011073" />
<line x1="1.675" y1="-0.8" x2="1.675" y2="-3.05" stroke-width="0.011073" />
<text transform="translate(1.2391,-3.2577) scale(1,-1) scale(0.0081699) " font-family="Helvetica,sans-serif" font-size="20px" stroke="none" fill="black" >concurrent</text>
<polyline points="2,-3.05 2,-3.2 1.85,-3.35 1.25,-3.35 " stroke-width="0.011073" />
<line x1="1.685" y1="-3.6" x2="4.065" y2="-3.6" stroke-width="0.011073" />
<polygon points="3.965,-3.575 4.065,-3.6 3.965,-3.625 " stroke-width="0.011073" fill="black" />
<text transform="translate(2.4663,-3.5596) scale(1,-1) scale(0.0081699) " font-family="Helvetica,sans-serif" font-size="20px" stroke="none" fill="black" >read dlt645</text>
<text transform="translate(2.8523,-3.7557) scale(1,-1) scale(0.0081699) " font-family="Helvetica,sans-serif" font-size="20px" stroke="none" fill="black" > </text>
<line x1="4.065" y1="-3.85" x2="1.685" y2="-3.85" stroke-width="0.011073" stroke-dasharray="0.05, 0.05"/>
<polygon points="1.785,-3.875 1.685,-3.85 1.785,-3.825 " stroke-width="0.011073" fill="black" />
<text transform="translate(2.2666,-3.8096) scale(1,-1) scale(0.0081699) " font-family="Helvetica,sans-serif" font-size="20px" stroke="none" fill="black" >normal response</text>
<text transform="translate(2.8523,-4.0057) scale(1,-1) scale(0.0081699) " font-family="Helvetica,sans-serif" font-size="20px" stroke="none" fill="black" > </text>
<line x1="1.685" y1="-4.1" x2="6.565" y2="-4.1" stroke-width="0.011073" />
<polygon points="6.465,-4.075 6.565,-4.1 6.465,-4.125 " stroke-width="0.011073" fill="black" />
<text transform="translate(3.7663,-4.0596) scale(1,-1) scale(0.0081699) " font-family="Helvetica,sans-serif" font-size="20px" stroke="none" fill="black" >read dlms</text>
<text transform="translate(4.1023,-4.2557) scale(1,-1) scale(0.0081699) " font-family="Helvetica,sans-serif" font-size="20px" stroke="none" fill="black" > </text>
<line x1="4.065" y1="-4.35" x2="1.685" y2="-4.35" stroke-width="0.011073" stroke-dasharray="0.05, 0.05"/>
<polygon points="1.785,-4.375 1.685,-4.35 1.785,-4.325 " stroke-width="0.011073" fill="black" />
<text transform="translate(2.2666,-4.3096) scale(1,-1) scale(0.0081699) " font-family="Helvetica,sans-serif" font-size="20px" stroke="none" fill="black" >normal response</text>
<text transform="translate(2.8523,-4.5057) scale(1,-1) scale(0.0081699) " font-family="Helvetica,sans-serif" font-size="20px" stroke="none" fill="black" > </text>
<rect x="1.25" y="-4.35" width="5.75" height="1.3" stroke-width="0.011073" />
<line x1="1.575" y1="-3.35" x2="1.575" y2="-4.85" stroke-width="0.011073" />
<line x1="1.675" y1="-3.35" x2="1.675" y2="-4.85" stroke-width="0.011073" />
<line x1="1.575" y1="-4.85" x2="1.675" y2="-4.85" stroke-width="0.011073" />
<line x1="4.075" y1="-0.25" x2="4.075" y2="-4.85" stroke-width="0.011073" />
<line x1="4.175" y1="-0.25" x2="4.175" y2="-4.85" stroke-width="0.011073" />
<line x1="4.075" y1="-4.85" x2="4.175" y2="-4.85" stroke-width="0.011073" />
<line x1="6.575" y1="-0.25" x2="6.575" y2="-4.85" stroke-width="0.011073" />
<line x1="6.675" y1="-0.25" x2="6.675" y2="-4.85" stroke-width="0.011073" />
<line x1="6.575" y1="-4.85" x2="6.675" y2="-4.85" stroke-width="0.011073" />
<line x1="9.125" y1="-3.05" x2="9.125" y2="-4.85" stroke-width="0.011073" stroke-dasharray="0.05, 0.05"/>
<line x1="9.025" y1="-4.85" x2="9.125" y2="-4.85" stroke-width="0.011073" />
</g>
</svg>
