<?xml version="1.0" encoding="ISO-8859-1" standalone="no"?>
<!DOCTYPE svg PUBLIC "-//W3C//DTD SVG 1.1//EN" "http://www.w3.org/Graphics/SVG/1.1/DTD/svg11.dtd">
<svg version="1.1" baseProfile="full" id="body" width="8in" height="8in" viewBox="0 0 1 1" preserveAspectRatio="none" xmlns="http://www.w3.org/2000/svg" xmlns:xlink="http://www.w3.org/1999/xlink" xmlns:ev="http://www.w3.org/2001/xml-events">
<title>SVG drawing</title>
<desc>This was produced by version 4.4 of GNU libplot, a free library for exporting 2-D vector graphics.</desc>
<rect id="background" x="0" y="0" width="1" height="1" stroke="none" fill="white"/>
<g id="content" transform="translate(0.26562,0.12813) scale(1,-1) scale(0.125) " xml:space="preserve" stroke="black" stroke-linecap="butt" stroke-linejoin="miter" stroke-miterlimit="10.433" stroke-dasharray="none" stroke-dashoffset="0" stroke-opacity="1" fill="none" fill-rule="evenodd" fill-opacity="1" font-style="normal" font-variant="normal" font-weight="normal" font-stretch="normal" font-size-adjust="none" letter-spacing="normal" word-spacing="normal" text-anchor="start">
<rect x="0" y="-0.15" width="0.75" height="0.3" stroke-width="0.0094118" />
<text transform="translate(0.20139,-0.049028) scale(1,-1) scale(0.0069444) " font-family="Helvetica,sans-serif" font-size="20px" stroke="none" fill="black" >FFC3</text>
<line x1="0.1" y1="-0.07" x2="0.65" y2="-0.07" stroke-width="0.0094118" />
<rect x="2.5" y="-0.15" width="0.75" height="0.3" stroke-width="0.0094118" />
<text transform="translate(2.5973,-0.049028) scale(1,-1) scale(0.0069444) " font-family="Helvetica,sans-serif" font-size="20px" stroke="none" fill="black" >CU Dlms</text>
<line x1="2.6" y1="-0.07" x2="3.15" y2="-0.07" stroke-width="0.0094118" />
<line x1="0.375" y1="-0.15" x2="0.375" y2="-0.25" stroke-width="0.0094118" stroke-dasharray="0.05, 0.05"/>
<line x1="0.325" y1="-0.25" x2="0.425" y2="-0.25" stroke-width="0.0094118" />
<line x1="2.875" y1="-0.15" x2="2.875" y2="-0.25" stroke-width="0.0094118" stroke-dasharray="0.05, 0.05"/>
<line x1="2.825" y1="-0.25" x2="2.925" y2="-0.25" stroke-width="0.0094118" />
<line x1="0.435" y1="-0.75" x2="2.815" y2="-0.75" stroke-width="0.0094118" />
<polygon points="2.715,-0.725 2.815,-0.75 2.715,-0.775 " stroke-width="0.0094118" fill="black" />
<text transform="translate(1.0885,-0.71569) scale(1,-1) scale(0.0069444) " font-family="Helvetica,sans-serif" font-size="20px" stroke="none" fill="black" >read profile/event</text>
<text transform="translate(1.6057,-0.88236) scale(1,-1) scale(0.0069444) " font-family="Helvetica,sans-serif" font-size="20px" stroke="none" fill="black" > </text>
<line x1="2.815" y1="-1.25" x2="0.435" y2="-1.25" stroke-width="0.0094118" stroke-dasharray="0.05, 0.05"/>
<polygon points="0.535,-1.275 0.435,-1.25 0.535,-1.225 " stroke-width="0.0094118" fill="black" />
<text transform="translate(1.1426,-1.2157) scale(1,-1) scale(0.0069444) " font-family="Helvetica,sans-serif" font-size="20px" stroke="none" fill="black" >Bad Dlms Apdu</text>
<text transform="translate(1.6057,-1.3824) scale(1,-1) scale(0.0069444) " font-family="Helvetica,sans-serif" font-size="20px" stroke="none" fill="black" > </text>
<line x1="0.325" y1="-0.25" x2="0.325" y2="-1.5" stroke-width="0.0094118" />
<line x1="0.425" y1="-0.25" x2="0.425" y2="-1.5" stroke-width="0.0094118" />
<text transform="translate(0.098958,-1.699) scale(1,-1) scale(0.0069444) " font-family="Helvetica,sans-serif" font-size="20px" stroke="none" fill="black" >repeat=3</text>
<polyline points="0.75,-1.5 0.75,-1.65 0.6,-1.8 0,-1.8 " stroke-width="0.0094118" />
<line x1="0.435" y1="-2.05" x2="2.815" y2="-2.05" stroke-width="0.0094118" />
<polygon points="2.715,-2.025 2.815,-2.05 2.715,-2.075 " stroke-width="0.0094118" fill="black" />
<text transform="translate(1.1465,-2.0157) scale(1,-1) scale(0.0069444) " font-family="Helvetica,sans-serif" font-size="20px" stroke="none" fill="black" >send HDLC.RR</text>
<text transform="translate(1.6057,-2.1824) scale(1,-1) scale(0.0069444) " font-family="Helvetica,sans-serif" font-size="20px" stroke="none" fill="black" > </text>
<polyline points="0.435,-2.3 0.935,-2.3 0.935,-2.55 0.435,-2.55 " stroke-width="0.0094118" />
<polygon points="0.535,-2.575 0.435,-2.55 0.535,-2.525 " stroke-width="0.0094118" fill="black" />
<text transform="translate(0.435,-2.224) scale(1,-1) scale(0.0069444) " font-family="Helvetica,sans-serif" font-size="20px" stroke="none" fill="black" >timeout</text>
<text transform="translate(0.41569,-2.3907) scale(1,-1) scale(0.0069444) " font-family="Helvetica,sans-serif" font-size="20px" stroke="none" fill="black" > </text>
<text transform="translate(0.41569,-2.5574) scale(1,-1) scale(0.0069444) " font-family="Helvetica,sans-serif" font-size="20px" stroke="none" fill="black" > </text>
<text transform="translate(0.41569,-2.724) scale(1,-1) scale(0.0069444) " font-family="Helvetica,sans-serif" font-size="20px" stroke="none" fill="black" > </text>
<rect x="0" y="-2.8" width="3.25" height="1.3" stroke-width="0.0094118" />
<line x1="0.325" y1="-1.8" x2="0.325" y2="-3.05" stroke-width="0.0094118" />
<line x1="0.425" y1="-1.8" x2="0.425" y2="-3.05" stroke-width="0.0094118" />
<text transform="translate(0.098958,-3.249) scale(1,-1) scale(0.0069444) " font-family="Helvetica,sans-serif" font-size="20px" stroke="none" fill="black" >repeat=3</text>
<polyline points="0.75,-3.05 0.75,-3.2 0.6,-3.35 0,-3.35 " stroke-width="0.0094118" />
<line x1="0.435" y1="-3.6" x2="2.815" y2="-3.6" stroke-width="0.0094118" />
<polygon points="2.715,-3.575 2.815,-3.6 2.715,-3.625 " stroke-width="0.0094118" fill="black" />
<text transform="translate(1.0809,-3.5657) scale(1,-1) scale(0.0069444) " font-family="Helvetica,sans-serif" font-size="20px" stroke="none" fill="black" >send HDLC.DISC</text>
<text transform="translate(1.6057,-3.7324) scale(1,-1) scale(0.0069444) " font-family="Helvetica,sans-serif" font-size="20px" stroke="none" fill="black" > </text>
<polyline points="0.435,-3.85 0.935,-3.85 0.935,-4.1 0.435,-4.1 " stroke-width="0.0094118" />
<polygon points="0.535,-4.125 0.435,-4.1 0.535,-4.075 " stroke-width="0.0094118" fill="black" />
<text transform="translate(0.435,-3.774) scale(1,-1) scale(0.0069444) " font-family="Helvetica,sans-serif" font-size="20px" stroke="none" fill="black" >timeout</text>
<text transform="translate(0.41569,-3.9407) scale(1,-1) scale(0.0069444) " font-family="Helvetica,sans-serif" font-size="20px" stroke="none" fill="black" > </text>
<text transform="translate(0.41569,-4.1074) scale(1,-1) scale(0.0069444) " font-family="Helvetica,sans-serif" font-size="20px" stroke="none" fill="black" > </text>
<text transform="translate(0.41569,-4.274) scale(1,-1) scale(0.0069444) " font-family="Helvetica,sans-serif" font-size="20px" stroke="none" fill="black" > </text>
<rect x="0" y="-4.35" width="3.25" height="1.3" stroke-width="0.0094118" />
<line x1="0.375" y1="-4.85" x2="0.575" y2="-4.85" stroke-width="0.0094118" stroke-dasharray="0.05, 0.05"/>
<text transform="translate(0.90618,-4.899) scale(1,-1) scale(0.0069444) " font-family="Helvetica,sans-serif" font-size="20px" stroke="none" fill="black" >idle for 120s+</text>
<polygon points="0.575,-4.6 1.975,-4.6 2.075,-4.7 2.075,-5.1 0.575,-5.1 " stroke-width="0.0094118" />
<polyline points="1.975,-4.6 1.975,-4.7 2.075,-4.7 " stroke-width="0.0094118" />
<line x1="0.435" y1="-5.6" x2="2.815" y2="-5.6" stroke-width="0.0094118" />
<polygon points="2.715,-5.575 2.815,-5.6 2.715,-5.625 " stroke-width="0.0094118" fill="black" />
<text transform="translate(1.0733,-5.5657) scale(1,-1) scale(0.0069444) " font-family="Helvetica,sans-serif" font-size="20px" stroke="none" fill="black" >HDLC.CONNECT</text>
<text transform="translate(1.6057,-5.7324) scale(1,-1) scale(0.0069444) " font-family="Helvetica,sans-serif" font-size="20px" stroke="none" fill="black" > </text>
<line x1="2.815" y1="-5.85" x2="0.435" y2="-5.85" stroke-width="0.0094118" />
<polygon points="0.535,-5.875 0.435,-5.85 0.535,-5.825 " stroke-width="0.0094118" fill="black" />
<text transform="translate(1.2624,-5.8157) scale(1,-1) scale(0.0069444) " font-family="Helvetica,sans-serif" font-size="20px" stroke="none" fill="black" >HDLC.CON</text>
<text transform="translate(1.6057,-5.9824) scale(1,-1) scale(0.0069444) " font-family="Helvetica,sans-serif" font-size="20px" stroke="none" fill="black" > </text>
<line x1="0.325" y1="-3.35" x2="0.325" y2="-6.1" stroke-width="0.0094118" />
<line x1="0.425" y1="-3.35" x2="0.425" y2="-6.1" stroke-width="0.0094118" />
<line x1="0.325" y1="-6.1" x2="0.425" y2="-6.1" stroke-width="0.0094118" />
<line x1="2.825" y1="-0.25" x2="2.825" y2="-6.1" stroke-width="0.0094118" />
<line x1="2.925" y1="-0.25" x2="2.925" y2="-6.1" stroke-width="0.0094118" />
<line x1="2.825" y1="-6.1" x2="2.925" y2="-6.1" stroke-width="0.0094118" />
</g>
</svg>
