<?xml version="1.0" encoding="ISO-8859-1" standalone="no"?>
<!DOCTYPE svg PUBLIC "-//W3C//DTD SVG 1.1//EN" "http://www.w3.org/Graphics/SVG/1.1/DTD/svg11.dtd">
<svg version="1.1" baseProfile="full" id="body" width="8in" height="8in" viewBox="0 0 1 1" preserveAspectRatio="none" xmlns="http://www.w3.org/2000/svg" xmlns:xlink="http://www.w3.org/1999/xlink" xmlns:ev="http://www.w3.org/2001/xml-events">
<title>SVG drawing</title>
<desc>This was produced by version 4.4 of GNU libplot, a free library for exporting 2-D vector graphics.</desc>
<rect id="background" x="0" y="0" width="1" height="1" stroke="none" fill="white"/>
<g id="content" transform="translate(0.1875,0.18125) scale(1,-1) scale(0.125) " xml:space="preserve" stroke="black" stroke-linecap="butt" stroke-linejoin="miter" stroke-miterlimit="10.433" stroke-dasharray="none" stroke-dashoffset="0" stroke-opacity="1" fill="none" fill-rule="evenodd" fill-opacity="1" font-style="normal" font-variant="normal" font-weight="normal" font-stretch="normal" font-size-adjust="none" letter-spacing="normal" word-spacing="normal" text-anchor="start">
<rect x="0" y="-0.15" width="0.75" height="0.3" stroke-width="0.0094118" />
<text transform="translate(0.20139,-0.049028) scale(1,-1) scale(0.0069444) " font-family="Helvetica,sans-serif" font-size="20px" stroke="none" fill="black" >FFC3</text>
<line x1="0.1" y1="-0.07" x2="0.65" y2="-0.07" stroke-width="0.0094118" />
<rect x="2.5" y="-0.15" width="0.75" height="0.3" stroke-width="0.0094118" />
<text transform="translate(2.5547,-0.049028) scale(1,-1) scale(0.0069444) " font-family="Helvetica,sans-serif" font-size="20px" stroke="none" fill="black" >CU Dlt645</text>
<line x1="2.6" y1="-0.07" x2="3.15" y2="-0.07" stroke-width="0.0094118" />
<rect x="3.75" y="-0.15" width="0.75" height="0.3" stroke-width="0.0094118" />
<text transform="translate(3.8473,-0.049028) scale(1,-1) scale(0.0069444) " font-family="Helvetica,sans-serif" font-size="20px" stroke="none" fill="black" >CU Dlms</text>
<line x1="3.85" y1="-0.07" x2="4.4" y2="-0.07" stroke-width="0.0094118" />
<line x1="0.375" y1="-0.15" x2="0.375" y2="-0.25" stroke-width="0.0094118" stroke-dasharray="0.05, 0.05"/>
<line x1="0.325" y1="-0.25" x2="0.425" y2="-0.25" stroke-width="0.0094118" />
<line x1="2.875" y1="-0.15" x2="2.875" y2="-0.25" stroke-width="0.0094118" stroke-dasharray="0.05, 0.05"/>
<line x1="2.825" y1="-0.25" x2="2.925" y2="-0.25" stroke-width="0.0094118" />
<line x1="4.125" y1="-0.15" x2="4.125" y2="-0.25" stroke-width="0.0094118" stroke-dasharray="0.05, 0.05"/>
<line x1="4.075" y1="-0.25" x2="4.175" y2="-0.25" stroke-width="0.0094118" />
<line x1="0.435" y1="-0.75" x2="2.815" y2="-0.75" stroke-width="0.0094118" />
<polygon points="2.715,-0.725 2.815,-0.75 2.715,-0.775 " stroke-width="0.0094118" fill="black" />
<text transform="translate(1.2776,-0.71569) scale(1,-1) scale(0.0069444) " font-family="Helvetica,sans-serif" font-size="20px" stroke="none" fill="black" >dlt645 read</text>
<text transform="translate(1.6057,-0.88236) scale(1,-1) scale(0.0069444) " font-family="Helvetica,sans-serif" font-size="20px" stroke="none" fill="black" > </text>
<line x1="2.815" y1="-1" x2="0.435" y2="-1" stroke-width="0.0094118" stroke-dasharray="0.05, 0.05"/>
<polygon points="0.535,-1.025 0.435,-1 0.535,-0.975 " stroke-width="0.0094118" fill="black" />
<text transform="translate(1.1078,-0.96569) scale(1,-1) scale(0.0069444) " font-family="Helvetica,sans-serif" font-size="20px" stroke="none" fill="black" >normal response</text>
<text transform="translate(1.6057,-1.1324) scale(1,-1) scale(0.0069444) " font-family="Helvetica,sans-serif" font-size="20px" stroke="none" fill="black" > </text>
<line x1="0.435" y1="-1.25" x2="4.065" y2="-1.25" stroke-width="0.0094118" />
<polygon points="3.965,-1.225 4.065,-1.25 3.965,-1.275 " stroke-width="0.0094118" fill="black" />
<text transform="translate(1.9451,-1.2157) scale(1,-1) scale(0.0069444) " font-family="Helvetica,sans-serif" font-size="20px" stroke="none" fill="black" >dlms read</text>
<text transform="translate(2.2307,-1.3824) scale(1,-1) scale(0.0069444) " font-family="Helvetica,sans-serif" font-size="20px" stroke="none" fill="black" > </text>
<line x1="2.815" y1="-1.5" x2="0.435" y2="-1.5" stroke-width="0.0094118" stroke-dasharray="0.05, 0.05"/>
<polygon points="0.535,-1.525 0.435,-1.5 0.535,-1.475 " stroke-width="0.0094118" fill="black" />
<text transform="translate(1.1078,-1.4657) scale(1,-1) scale(0.0069444) " font-family="Helvetica,sans-serif" font-size="20px" stroke="none" fill="black" >normal response</text>
<text transform="translate(1.6057,-1.6324) scale(1,-1) scale(0.0069444) " font-family="Helvetica,sans-serif" font-size="20px" stroke="none" fill="black" > </text>
<line x1="0.435" y1="-1.75" x2="2.815" y2="-1.75" stroke-width="0.0094118" />
<polygon points="2.715,-1.725 2.815,-1.75 2.715,-1.775 " stroke-width="0.0094118" fill="black" />
<text transform="translate(1.2776,-1.7157) scale(1,-1) scale(0.0069444) " font-family="Helvetica,sans-serif" font-size="20px" stroke="none" fill="black" >dlt645 read</text>
<text transform="translate(1.6057,-1.8824) scale(1,-1) scale(0.0069444) " font-family="Helvetica,sans-serif" font-size="20px" stroke="none" fill="black" > </text>
<polyline points="0.435,-2 0.935,-2 0.935,-2.25 0.435,-2.25 " stroke-width="0.0094118" />
<polygon points="0.535,-2.275 0.435,-2.25 0.535,-2.225 " stroke-width="0.0094118" fill="black" />
<text transform="translate(0.435,-1.924) scale(1,-1) scale(0.0069444) " font-family="Helvetica,sans-serif" font-size="20px" stroke="none" fill="black" >timeout</text>
<text transform="translate(0.41569,-2.0907) scale(1,-1) scale(0.0069444) " font-family="Helvetica,sans-serif" font-size="20px" stroke="none" fill="black" > </text>
<text transform="translate(0.41569,-2.2574) scale(1,-1) scale(0.0069444) " font-family="Helvetica,sans-serif" font-size="20px" stroke="none" fill="black" > </text>
<text transform="translate(0.41569,-2.424) scale(1,-1) scale(0.0069444) " font-family="Helvetica,sans-serif" font-size="20px" stroke="none" fill="black" > </text>
<line x1="0.435" y1="-2.5" x2="4.065" y2="-2.5" stroke-width="0.0094118" />
<polygon points="3.965,-2.475 4.065,-2.5 3.965,-2.525 " stroke-width="0.0094118" fill="black" />
<text transform="translate(1.9451,-2.4657) scale(1,-1) scale(0.0069444) " font-family="Helvetica,sans-serif" font-size="20px" stroke="none" fill="black" >dlms read</text>
<text transform="translate(2.2307,-2.6324) scale(1,-1) scale(0.0069444) " font-family="Helvetica,sans-serif" font-size="20px" stroke="none" fill="black" > </text>
<polyline points="0.435,-2.75 0.935,-2.75 0.935,-3 0.435,-3 " stroke-width="0.0094118" />
<polygon points="0.535,-3.025 0.435,-3 0.535,-2.975 " stroke-width="0.0094118" fill="black" />
<text transform="translate(0.435,-2.674) scale(1,-1) scale(0.0069444) " font-family="Helvetica,sans-serif" font-size="20px" stroke="none" fill="black" >timeout</text>
<text transform="translate(0.41569,-2.8407) scale(1,-1) scale(0.0069444) " font-family="Helvetica,sans-serif" font-size="20px" stroke="none" fill="black" > </text>
<text transform="translate(0.41569,-3.0074) scale(1,-1) scale(0.0069444) " font-family="Helvetica,sans-serif" font-size="20px" stroke="none" fill="black" > </text>
<text transform="translate(0.41569,-3.174) scale(1,-1) scale(0.0069444) " font-family="Helvetica,sans-serif" font-size="20px" stroke="none" fill="black" > </text>
<line x1="0.375" y1="-3.5" x2="0.875" y2="-3.5" stroke-width="0.0094118" stroke-dasharray="0.05, 0.05"/>
<text transform="translate(1.0442,-3.549) scale(1,-1) scale(0.0069444) " font-family="Helvetica,sans-serif" font-size="20px" stroke="none" fill="black" >comm blocked ~2s</text>
<polygon points="0.875,-3.25 2.275,-3.25 2.375,-3.35 2.375,-3.75 0.875,-3.75 " stroke-width="0.0094118" />
<polyline points="2.275,-3.25 2.275,-3.35 2.375,-3.35 " stroke-width="0.0094118" />
<line x1="0.435" y1="-4.25" x2="2.815" y2="-4.25" stroke-width="0.0094118" />
<polygon points="2.715,-4.225 2.815,-4.25 2.715,-4.275 " stroke-width="0.0094118" fill="black" />
<text transform="translate(1.2776,-4.2157) scale(1,-1) scale(0.0069444) " font-family="Helvetica,sans-serif" font-size="20px" stroke="none" fill="black" >dlt645 read</text>
<text transform="translate(1.6057,-4.3824) scale(1,-1) scale(0.0069444) " font-family="Helvetica,sans-serif" font-size="20px" stroke="none" fill="black" > </text>
<line x1="2.815" y1="-4.5" x2="0.435" y2="-4.5" stroke-width="0.0094118" stroke-dasharray="0.05, 0.05"/>
<polygon points="0.535,-4.525 0.435,-4.5 0.535,-4.475 " stroke-width="0.0094118" fill="black" />
<text transform="translate(1.1078,-4.4657) scale(1,-1) scale(0.0069444) " font-family="Helvetica,sans-serif" font-size="20px" stroke="none" fill="black" >normal response</text>
<text transform="translate(1.6057,-4.6324) scale(1,-1) scale(0.0069444) " font-family="Helvetica,sans-serif" font-size="20px" stroke="none" fill="black" > </text>
<line x1="0.435" y1="-4.75" x2="4.065" y2="-4.75" stroke-width="0.0094118" />
<polygon points="3.965,-4.725 4.065,-4.75 3.965,-4.775 " stroke-width="0.0094118" fill="black" />
<text transform="translate(1.7715,-4.7157) scale(1,-1) scale(0.0069444) " font-family="Helvetica,sans-serif" font-size="20px" stroke="none" fill="black" >send HDLC.RR</text>
<text transform="translate(2.2307,-4.8824) scale(1,-1) scale(0.0069444) " font-family="Helvetica,sans-serif" font-size="20px" stroke="none" fill="black" > </text>
<line x1="4.065" y1="-5" x2="0.435" y2="-5" stroke-width="0.0094118" stroke-dasharray="0.05, 0.05"/>
<polygon points="0.535,-5.025 0.435,-5 0.535,-4.975 " stroke-width="0.0094118" fill="black" />
<text transform="translate(1.9337,-4.9657) scale(1,-1) scale(0.0069444) " font-family="Helvetica,sans-serif" font-size="20px" stroke="none" fill="black" >HDLC.DM</text>
<text transform="translate(2.2307,-5.1324) scale(1,-1) scale(0.0069444) " font-family="Helvetica,sans-serif" font-size="20px" stroke="none" fill="black" > </text>
<line x1="0.325" y1="-0.25" x2="0.325" y2="-5.25" stroke-width="0.0094118" />
<line x1="0.425" y1="-0.25" x2="0.425" y2="-5.25" stroke-width="0.0094118" />
<line x1="0.325" y1="-5.25" x2="0.425" y2="-5.25" stroke-width="0.0094118" />
<line x1="2.825" y1="-0.25" x2="2.825" y2="-5.25" stroke-width="0.0094118" />
<line x1="2.925" y1="-0.25" x2="2.925" y2="-5.25" stroke-width="0.0094118" />
<line x1="2.825" y1="-5.25" x2="2.925" y2="-5.25" stroke-width="0.0094118" />
<line x1="4.075" y1="-0.25" x2="4.075" y2="-5.25" stroke-width="0.0094118" />
<line x1="4.175" y1="-0.25" x2="4.175" y2="-5.25" stroke-width="0.0094118" />
<line x1="4.075" y1="-5.25" x2="4.175" y2="-5.25" stroke-width="0.0094118" />
</g>
</svg>
